FrancaisAudiardLouis De Funes - Un Drole De Caïd - (Une Souris Chez Les Hommes) - Audiard.avi
Format                                   : AVI
Format/Info                              : Audio Video Interleave
File size                                : 691 MiB
Duration                                 : 1h 26mn
Overall bit rate                         : 1 113 Kbps

Video
ID                                       : 0
Format                                   : MPEG-4 Visual
Format settings, BVOP                    : Yes
Format settings, QPel                    : No
Format settings, GMC                     : No warppoints
Format settings, Matrix                  : Default (H.263)
Codec ID                                 : DX50
Codec ID/Hint                            : DivX 5
Duration                                 : 1h 26mn
Bit rate                                 : 1 004 Kbps
Width                                    : 720 pixels
Height                                   : 432 pixels
Display aspect ratio                     : 1.667
Frame rate                               : 25.000 fps
Color space                              : YUV
Chroma subsampling                       : 4:2:0
Bit depth                                : 8 bits
Scan type                                : Progressive
Compression mode                         : Lossy
Bits/(Pixel*Frame)                       : 0.129
Stream size                              : 624 MiB (90%)
Title                                    : NeoVideo10BV
Writing library                          : DivX 5.0.2 (UTC 2002-05-16)

Audio
ID                                       : 1
Format                                   : MPEG Audio
Format version                           : Version 1
Format profile                           : Layer 3
Mode                                     : Joint stereo
Mode extension                           : MS Stereo
Codec ID                                 : 55
Codec ID/Hint                            : MP3
Duration                                 : 1h 26mn
Bit rate mode                            : Constant
Bit rate                                 : 96.0 Kbps
Channel(s)                               : 2 channels
Sampling rate                            : 48.0 KHz
Compression mode                         : Lossy
Stream size                              : 59.6 MiB (9%)
Alignment                                : Split accross interleaves
Interleave, duration                     : 24 ms (0.60 video frame)
Title                                    : NeoSound10BV0
